<svg width="54" height="54" viewBox="0 0 54 54" fill="none" xmlns="http://www.w3.org/2000/svg">
<g clip-path="url(#clip0_155_68)">
<path d="M30.375 34.875C30.375 32.7532 30.375 31.6935 31.0342 31.0342C31.6935 30.375 32.7532 30.375 34.875 30.375H45C47.1217 30.375 48.1815 30.375 48.8407 31.0342C49.5 31.6935 49.5 32.7532 49.5 34.875V45C49.5 47.1217 49.5 48.1815 48.8407 48.8407C48.1815 49.5 47.1217 49.5 45 49.5H34.875C32.7532 49.5 31.6935 49.5 31.0342 48.8407C30.375 48.1815 30.375 47.1217 30.375 45V34.875ZM4.5 9C4.5 6.87825 4.5 5.8185 5.15925 5.15925C5.8185 4.5 6.87825 4.5 9 4.5H19.125C21.2467 4.5 22.3065 4.5 22.9657 5.15925C23.625 5.8185 23.625 6.87825 23.625 9V19.125C23.625 21.2467 23.625 22.3065 22.9657 22.9657C22.3065 23.625 21.2467 23.625 19.125 23.625H9C6.87825 23.625 5.8185 23.625 5.15925 22.9657C4.5 22.3065 4.5 21.2467 4.5 19.125V9ZM4.5 34.875C4.5 32.7532 4.5 31.6935 5.15925 31.0342C5.8185 30.375 6.87825 30.375 9 30.375H19.125C21.2467 30.375 22.3065 30.375 22.9657 31.0342C23.625 31.6935 23.625 32.7532 23.625 34.875V45C23.625 47.1217 23.625 48.1815 22.9657 48.8407C22.3065 49.5 21.2467 49.5 19.125 49.5H9C6.87825 49.5 5.8185 49.5 5.15925 48.8407C4.5 48.1815 4.5 47.1217 4.5 45V34.875ZM30.375 9C30.375 6.87825 30.375 5.8185 31.0342 5.15925C31.6935 4.5 32.7532 4.5 34.875 4.5H45C47.1217 4.5 48.1815 4.5 48.8407 5.15925C49.5 5.8185 49.5 6.87825 49.5 9V19.125C49.5 21.2467 49.5 22.3065 48.8407 22.9657C48.1815 23.625 47.1217 23.625 45 23.625H34.875C32.7532 23.625 31.6935 23.625 31.0342 22.9657C30.375 22.3065 30.375 21.2467 30.375 19.125V9Z" stroke="#A1CD42" stroke-width="4" stroke-linecap="round" stroke-linejoin="round"/>
</g>
<defs>
<clipPath id="clip0_155_68">
<rect width="54" height="54" fill="white"/>
</clipPath>
</defs>
</svg>
